<svg xmlns="http://www.w3.org/2000/svg" viewBox="0 0 175.84 42.25"><defs><style>.cls-1{fill:#fff;}</style></defs><title>NexusLifecycle_horiz_white</title><g id="Product_Logos_Horizontal_White" data-name="Product Logos Horizontal White"><g id="Lifecycle"><path class="cls-1" d="M16,27.07a2.59,2.59,0,0,0,.89,2.21,3.41,3.41,0,0,0,2.14.65h2V26.72h-.82c-.59,0-.89-.27-.89-.8V13.36H16Z"/><polygon class="cls-1" points="18.5 0 0 10.66 0 31.99 17.63 42.14 17.63 36.91 4.54 29.37 4.54 13.28 18.5 5.24 32.46 13.28 32.46 28.26 37 30.88 37 10.66 18.5 0"/><polygon class="cls-1" points="19.44 37.02 19.44 42.25 36.27 32.55 31.73 29.93 19.44 37.02"/><path class="cls-1" d="M50.17,19.86c0-1.84-1-2.44-2.37-2.44A4,4,0,0,0,44.74,19V27H42.67V15.86h2.07v1.56a5.3,5.3,0,0,1,3.93-1.84c2.35,0,3.57,1.24,3.57,3.59V27H50.17Z"/><path class="cls-1" d="M59,15.58c3.34,0,5.41,2.6,5.41,6v.51H55.64a3.65,3.65,0,0,0,3.77,3.45,4.72,4.72,0,0,0,3.29-1.31l1,1.35a6.27,6.27,0,0,1-4.46,1.66,5.56,5.56,0,0,1-5.75-5.84A5.58,5.58,0,0,1,59,15.58Zm-3.4,5H62.4A3.28,3.28,0,0,0,59,17.28,3.4,3.4,0,0,0,55.62,20.59Z"/><path class="cls-1" d="M69.74,22.64,66.61,27H64.27l4.16-5.7-3.91-5.4h2.35l2.87,4,2.85-4h2.35L71,21.26,75.19,27H72.84Z"/><path class="cls-1" d="M83.61,25.45a5.48,5.48,0,0,1-4,1.79c-2.36,0-3.54-1.2-3.54-3.54V15.86h2.07V23c0,1.84.92,2.39,2.35,2.39a4,4,0,0,0,3.08-1.56v-8h2.07V27H83.61Z"/><path class="cls-1" d="M88.07,24a5.41,5.41,0,0,0,3.73,1.58c1.56,0,2.39-.64,2.39-1.58,0-1.11-1.27-1.47-2.69-1.8-1.89-.43-4.09-.94-4.09-3.33,0-1.77,1.51-3.29,4.23-3.29a5.94,5.94,0,0,1,4.23,1.59L95,18.62a4.32,4.32,0,0,0-3.29-1.36c-1.4,0-2.28.55-2.28,1.45S90.58,20,92,20.32c1.93.43,4.23,1,4.23,3.52,0,1.9-1.56,3.4-4.48,3.4a6.33,6.33,0,0,1-4.63-1.73Z"/><path class="cls-1" d="M102.91,11.63H105V27h-2.07Z"/><path class="cls-1" d="M107,12.68a1.35,1.35,0,0,1,1.34-1.33,1.34,1.34,0,0,1,1.33,1.33A1.31,1.31,0,0,1,108.36,14,1.33,1.33,0,0,1,107,12.68Zm.33,3.18h2.07V27h-2.07Z"/><path class="cls-1" d="M112.29,17.67h-1.84V15.86h1.84v-.74c0-2.39,1.4-3.72,3.38-3.72a3.66,3.66,0,0,1,1.82.41L117,13.35a2,2,0,0,0-1-.25c-1,0-1.66.69-1.66,2v.74h2.25v1.81h-2.25V27h-2.07Z"/><path class="cls-1" d="M122.55,15.58c3.33,0,5.4,2.6,5.4,6v.51h-8.78a3.65,3.65,0,0,0,3.77,3.45,4.74,4.74,0,0,0,3.29-1.31l1,1.35a6.23,6.23,0,0,1-4.46,1.66A5.56,5.56,0,0,1,117,21.4,5.59,5.59,0,0,1,122.55,15.58Zm-3.41,5h6.79a3.29,3.29,0,0,0-3.38-3.31A3.42,3.42,0,0,0,119.14,20.59Z"/><path class="cls-1" d="M134.6,15.58a4.82,4.82,0,0,1,4.16,2l-1.38,1.26a3.11,3.11,0,0,0-2.69-1.38c-2.18,0-3.59,1.68-3.59,4s1.41,4,3.59,4A3.16,3.16,0,0,0,137.38,24l1.38,1.26a4.82,4.82,0,0,1-4.16,2,5.55,5.55,0,0,1-5.66-5.84A5.53,5.53,0,0,1,134.6,15.58Z"/><path class="cls-1" d="M140.81,29.63a1.53,1.53,0,0,0,1.61-1.08l.64-1.47-4.57-11.22h2.2l3.48,8.71,3.47-8.71h2.23L144.4,29.08a3.51,3.51,0,0,1-3.54,2.39,6.07,6.07,0,0,1-1.29-.16l.32-1.86A2.6,2.6,0,0,0,140.81,29.63Z"/><path class="cls-1" d="M155.6,15.58a4.84,4.84,0,0,1,4.16,2l-1.38,1.26a3.11,3.11,0,0,0-2.69-1.38c-2.19,0-3.59,1.68-3.59,4s1.4,4,3.59,4A3.16,3.16,0,0,0,158.38,24l1.38,1.26a4.84,4.84,0,0,1-4.16,2,5.55,5.55,0,0,1-5.66-5.84A5.53,5.53,0,0,1,155.6,15.58Z"/><path class="cls-1" d="M161.12,11.63h2.07V27h-2.07Z"/><path class="cls-1" d="M170.43,15.58c3.34,0,5.41,2.6,5.41,6v.51h-8.79a3.65,3.65,0,0,0,3.77,3.45,4.72,4.72,0,0,0,3.29-1.31l1,1.35a6.27,6.27,0,0,1-4.46,1.66,5.55,5.55,0,0,1-5.75-5.84A5.58,5.58,0,0,1,170.43,15.58Zm-3.4,5h6.78a3.28,3.28,0,0,0-3.38-3.31A3.4,3.4,0,0,0,167,20.59Z"/></g></g></svg>