<svg id="Layer_1" data-name="Layer 1" xmlns="http://www.w3.org/2000/svg" xmlns:xlink="http://www.w3.org/1999/xlink" viewBox="0 0 32 29.21"><defs><style>.cls-1{fill:#d3e1eb;}.cls-2{fill:#0f0c30;}.cls-3{fill:url(#radial-gradient);}.cls-4{fill:#4a7550;}.cls-5{fill:url(#radial-gradient-2);}.cls-6{fill:url(#radial-gradient-3);}.cls-7{fill:url(#radial-gradient-4);}.cls-8{fill:url(#radial-gradient-5);}.cls-9{opacity:0.75;}.cls-15,.cls-9{isolation:isolate;}.cls-10{fill:url(#linear-gradient);}.cls-11{fill:#5b5dde;}.cls-12{fill:url(#linear-gradient-2);}.cls-13{fill:url(#linear-gradient-3);}.cls-14{fill:#3b2dba;}.cls-15{opacity:0.59;}.cls-16{fill:url(#linear-gradient-4);}.cls-17{fill:url(#linear-gradient-5);}.cls-18{fill:url(#linear-gradient-6);}.cls-19{fill:url(#linear-gradient-7);}.cls-20{fill:url(#linear-gradient-8);}.cls-21{fill:url(#linear-gradient-9);}.cls-22{stroke:#9daeb0;stroke-width:0.08px;fill:url(#linear-gradient-10);}.cls-22,.cls-23,.cls-25{stroke-miterlimit:10;}.cls-23{fill:none;stroke:#d9fcff;stroke-width:0.09px;}.cls-24{fill:url(#linear-gradient-11);}.cls-25{fill:#fff;stroke:#000;stroke-width:0.12px;}.cls-26{fill:#493023;}</style><radialGradient id="radial-gradient" cx="39.94" cy="22.9" r="0.05" gradientUnits="userSpaceOnUse"><stop offset="0" stop-color="#94eba1"/><stop offset="0.44" stop-color="#93e9a0"/><stop offset="1" stop-color="#8ee29b"/></radialGradient><radialGradient id="radial-gradient-2" cx="88.92" cy="-2046.29" r="17.02" gradientTransform="matrix(-0.28, -0.03, 0.02, -0.2, 88.35, -396.46)" gradientUnits="userSpaceOnUse"><stop offset="0" stop-color="#fff"/><stop offset="0.31" stop-color="#fdfdfd"/><stop offset="0.49" stop-color="#f5f4f4"/><stop offset="0.64" stop-color="#e8e6e6"/><stop offset="0.77" stop-color="#d6d2d2"/><stop offset="0.89" stop-color="#bfb8b8"/><stop offset="1" stop-color="#a39999"/></radialGradient><radialGradient id="radial-gradient-3" cx="62.07" cy="-1626" r="12.47" gradientTransform="matrix(-0.28, -0.03, 0.03, -0.28, 92.47, -433.52)" gradientUnits="userSpaceOnUse"><stop offset="0" stop-color="#faf9f9"/><stop offset="0.71" stop-color="#fff"/><stop offset="0.74" stop-color="#eae2e2"/><stop offset="0.8" stop-color="#c8b4b4"/><stop offset="0.86" stop-color="#ad8f8f"/><stop offset="0.91" stop-color="#9a7575"/><stop offset="0.96" stop-color="#8e6565"/><stop offset="1" stop-color="#8a5f5f"/></radialGradient><radialGradient id="radial-gradient-4" cx="-651.2" cy="-522.78" r="0.38" gradientTransform="matrix(-7.82, -0.87, 1.3, -11.74, -4396.73, -6684.24)" gradientUnits="userSpaceOnUse"><stop offset="0" stop-color="#f5f5f5"/><stop offset="0.13" stop-color="#f2f1f1"/><stop offset="0.26" stop-color="#e8e5e5"/><stop offset="0.39" stop-color="#d8d0d0"/><stop offset="0.52" stop-color="#c2b3b3"/><stop offset="0.65" stop-color="#a58f8f"/><stop offset="0.79" stop-color="#826161"/><stop offset="0.92" stop-color="#592d2d"/><stop offset="1" stop-color="#3d0909"/></radialGradient><radialGradient id="radial-gradient-5" cx="-652.23" cy="-522.59" r="0.38" xlink:href="#radial-gradient-4"/><linearGradient id="linear-gradient" x1="-200.44" y1="288.75" x2="-195.07" y2="289.07" gradientTransform="matrix(-0.95, 0.32, -0.3, -0.86, -78.84, 332.52)" gradientUnits="userSpaceOnUse"><stop offset="0" stop-opacity="0.15"/><stop offset="1" stop-opacity="0.4"/></linearGradient><linearGradient id="linear-gradient-2" x1="14.11" y1="26" x2="27.06" y2="20.74" gradientTransform="translate(31.92 34) rotate(180)" gradientUnits="userSpaceOnUse"><stop offset="0" stop-color="#040305"/><stop offset="1" stop-color="#331f29"/></linearGradient><linearGradient id="linear-gradient-3" x1="78.41" y1="-65.98" x2="79.93" y2="-66.26" gradientTransform="matrix(-0.99, -0.11, 0.11, -0.99, 91.43, -38.77)" gradientUnits="userSpaceOnUse"><stop offset="0" stop-color="#472073"/><stop offset="0.29" stop-color="#3f3e89"/><stop offset="0.76" stop-color="#3369a7"/><stop offset="1" stop-color="#2e79b3"/></linearGradient><linearGradient id="linear-gradient-4" x1="184.91" y1="-184.01" x2="185.3" y2="-184.58" gradientTransform="matrix(-0.89, -0.27, 0.26, -0.92, 232.68, -110.92)" gradientUnits="userSpaceOnUse"><stop offset="0" stop-opacity="0.33"/><stop offset="1" stop-opacity="0.68"/></linearGradient><linearGradient id="linear-gradient-5" x1="59.78" y1="-58.33" x2="60.19" y2="-58.34" gradientTransform="matrix(-0.99, -0.11, 0.11, -0.99, 91.43, -38.77)" gradientUnits="userSpaceOnUse"><stop offset="0" stop-color="#fff"/><stop offset="0.11" stop-color="#c9c9c9"/><stop offset="0.24" stop-color="#949494"/><stop offset="0.37" stop-color="#676767"/><stop offset="0.5" stop-color="#424242"/><stop offset="0.63" stop-color="#252525"/><stop offset="0.75" stop-color="#101010"/><stop offset="0.88" stop-color="#040404"/><stop offset="1"/></linearGradient><linearGradient id="linear-gradient-6" x1="6.59" y1="44.54" x2="8.2" y2="44.54" gradientTransform="translate(25.4 48.98) rotate(178.79)" gradientUnits="userSpaceOnUse"><stop offset="0" stop-color="#fff"/><stop offset="1"/></linearGradient><linearGradient id="linear-gradient-7" x1="2.85" y1="42" x2="3.2" y2="41.47" gradientTransform="translate(25.36 50.19) rotate(178.79)" xlink:href="#linear-gradient-6"/><linearGradient id="linear-gradient-8" x1="59.53" y1="-57.03" x2="60.69" y2="-57.03" gradientTransform="matrix(-0.99, -0.11, 0.11, -0.99, 91.47, -39.98)" xlink:href="#linear-gradient-6"/><linearGradient id="linear-gradient-9" x1="56.34" y1="-62.35" x2="61.26" y2="-62.35" gradientTransform="matrix(-0.99, -0.11, 0.11, -0.99, 91.43, -38.77)" gradientUnits="userSpaceOnUse"><stop offset="0" stop-color="#706c6c"/><stop offset="1" stop-color="#4fd6ff"/></linearGradient><linearGradient id="linear-gradient-10" x1="74.65" y1="-62.43" x2="79.46" y2="-62.43" gradientTransform="matrix(-0.97, -0.11, 0.11, -0.99, 107.19, -37.01)" gradientUnits="userSpaceOnUse"><stop offset="0" stop-color="#fff" stop-opacity="0"/><stop offset="1" stop-color="aqua"/></linearGradient><linearGradient id="linear-gradient-11" x1="60.89" y1="-59.55" x2="61.78" y2="-64.4" gradientTransform="matrix(-0.99, -0.11, 0.11, -0.99, 91.43, -38.77)" gradientUnits="userSpaceOnUse"><stop offset="0"/><stop offset="0.5" stop-color="#fff"/><stop offset="1"/></linearGradient></defs><g id="Magnifying_glass" data-name="Magnifying glass"><polygon class="cls-1" points="8 0 24 0 32 14.61 24 29.21 8 29.21 0 14.61 8 0"/><path class="cls-2" d="M7,17c-.33.23-.86.54-1.17.8-.12.1-.26.24-.38.33a3.32,3.32,0,0,0-.43.41,3.54,3.54,0,0,0-1.25,2.65,1.31,1.31,0,0,0,.11.52.72.72,0,0,0,.39.36,3,3,0,0,0,3-.23.91.91,0,0,0,.46-.2,3.9,3.9,0,0,1,.35-.19s0,0,0,0,0,0,0,0" transform="translate(0.04 -1.21)"/><path class="cls-3" d="M23.74,12c1.08,1.25,1,3.3,1.32,4.9s1.13,3.32,1.32,5a13.51,13.51,0,0,1-.15,3.36,3.24,3.24,0,0,1-.72,1.52c-.53.68-.37.13-.51,0-.35-.26-.48-.38-.81-.39a2,2,0,0,1-1.3-.53,2.29,2.29,0,0,0-1.18-.54c-.43-.06-.88,0-1.31-.09-.91-.17-1.57-1.15-2.49-1.11A4.08,4.08,0,0,1,16,23.86c-.91-.36-1.32-1.36-1.72-2.18a16.21,16.21,0,0,0,1.53,1.89,3.66,3.66,0,0,0,1,.85,4.79,4.79,0,0,0,1.19.34A28.94,28.94,0,0,1,23,26.21c.29.11.62.32.58.61s-.36.37-.63.42a12.62,12.62,0,0,1-6-.38,4.41,4.41,0,0,1-2.61-1.76c1.22,1.38,3.21,1.51,5,2-.94.17-1.95.74-2.9.59a7,7,0,0,1-1.34-.38L14,26.87l-1.25-.51-1.22-.51a6.47,6.47,0,0,1-2-1.11,17,17,0,0,1-2-2,10.27,10.27,0,0,1-1-3.73,9.52,9.52,0,0,1,.38-3.2C7.56,15.43,8,15,8.68,14.67c.15-.09.33-.36.51-.39a2.07,2.07,0,0,1,.35,0c.21,0,.52-.24.71-.3,1.1-.33,1.76-.89,2.86-1.22a4,4,0,0,0,1-.27c.35-.26.73,0,1.1-.26a3,3,0,0,1,.92-.32c.37-.05.56-.13.94-.18l.6-.08c.18,0,.45,0,.63,0a4.82,4.82,0,0,0,.66,0,5.51,5.51,0,0,1,3.8-.19A4.46,4.46,0,0,0,23.74,12Z" transform="translate(0.04 -1.21)"/><path d="M19.86,19.85c.16.22.23.5.37.74a1.42,1.42,0,0,0,1.06.68c0-.36-.29-.64-.58-.86A6.81,6.81,0,0,0,19.86,19.85Z" transform="translate(0.04 -1.21)"/><path d="M23.27,19.21c-.1.26-.3.46-.42.71a1.4,1.4,0,0,0,0,1.26c.32-.16.38-.59.41-.95A5.85,5.85,0,0,0,23.27,19.21Z" transform="translate(0.04 -1.21)"/><path class="cls-4" d="M20.11,24.9c.38.06,1.68.5,1.83.54.35.11.36.12.46.21a10.1,10.1,0,0,0,1.08,1c-.36.06-.61-.15-.86-.23-1.35-.41-1.46-.49-1.67-.56a23.26,23.26,0,0,0-2.46-.72,14.22,14.22,0,0,1-1.86-.65,1.6,1.6,0,0,1-.44-.31c-.12-.11-1-1.44-.84-1.51s.68,1.14,1.13,1.3a5.4,5.4,0,0,0,1.49.24,2.83,2.83,0,0,1,.94.31Z" transform="translate(0.04 -1.21)"/><path class="cls-4" d="M13.3,32.91" transform="translate(0.04 -1.21)"/><path class="cls-5" d="M17.89,16.38a2.67,2.67,0,0,1,.7,2.12.91.91,0,0,1-.16.45.83.83,0,0,1-.33.22,6.19,6.19,0,0,1-4,.48,2.92,2.92,0,0,1-1.07-.42,1.38,1.38,0,0,1-.6-.95A2.18,2.18,0,0,1,13,17,3.15,3.15,0,0,1,14,15.8a3.47,3.47,0,0,1,.71-.23,4,4,0,0,1,1.79-.13A2.74,2.74,0,0,1,17.89,16.38Z" transform="translate(0.04 -1.21)"/><path class="cls-6" d="M25.68,18.47a5.65,5.65,0,0,1-1.21.48,1.17,1.17,0,0,1-1-.32,1.28,1.28,0,0,1-.2-.5,5.76,5.76,0,0,1,.42-3.59,2,2,0,0,1,.7-.9,1.59,1.59,0,0,1,1.05-.17,4.13,4.13,0,0,1,1,.33,1.9,1.9,0,0,1,.46.82,2.94,2.94,0,0,1,.06.78C26.89,16.51,27,16.87,25.68,18.47Z" transform="translate(0.04 -1.21)"/><circle class="cls-7" cx="16.76" cy="16.57" r="1.72"/><circle class="cls-8" cx="25.09" cy="15.23" r="1.72"/><path d="M17.46,17.28a.32.32,0,0,1,.24.17.74.74,0,0,1,.08.29.85.85,0,0,1-.09.63.69.69,0,0,1-.32.21.86.86,0,0,1-.39.05.69.69,0,0,1-.57-.65.82.82,0,0,1,.49-.74.57.57,0,0,1,.66.09Z" transform="translate(0.04 -1.21)"/><path d="M25.72,15.56a.5.5,0,0,1,.38.27,1.22,1.22,0,0,1,.13.47,1.33,1.33,0,0,1-.15,1,1.08,1.08,0,0,1-.52.34,1.36,1.36,0,0,1-.63.08A1.13,1.13,0,0,1,24,16.68a1.33,1.33,0,0,1,.79-1.2.92.92,0,0,1,1.06.15Z" transform="translate(0.04 -1.21)"/><path class="cls-9" d="M18.76,27.26c-1-.35-2.42-.42-3.44-.75-.31-.1-.62-.23-.93-.35l-.66-.26a6.52,6.52,0,0,1-1.58-.8,7.88,7.88,0,0,0,.91,1.08,4.39,4.39,0,0,0,.57.48,4.83,4.83,0,0,0,.55.3,11.12,11.12,0,0,0,1.45.56,2.46,2.46,0,0,0,.45.11,2.54,2.54,0,0,0,.39,0,3.21,3.21,0,0,0,.78,0C17.8,27.49,17.7,27.48,18.76,27.26Z" transform="translate(0.04 -1.21)"/><path d="M18.56,13.18a.5.5,0,0,1,.06.46,4,4,0,0,0-2.45.17,7.61,7.61,0,0,0-2.12,1.3,2.22,2.22,0,0,1,.72-.89,5.24,5.24,0,0,1,3.31-1.14C18.24,13.08,18.45,13,18.56,13.18Z" transform="translate(0.04 -1.21)"/><path d="M21.52,12.94a.3.3,0,0,0,.09.28,2.42,2.42,0,0,1,1.44-.53,5,5,0,0,1,1.54.19,1.39,1.39,0,0,0-.64-.32,3.34,3.34,0,0,0-2.18.2C21.68,12.8,21.54,12.82,21.52,12.94Z" transform="translate(0.04 -1.21)"/><path class="cls-10" d="M22.61,14.73c-1.2-.07-1.47,1-1.62,1.65a5.18,5.18,0,0,0,.06,2.71,5.93,5.93,0,0,0,.58,1.08,5.88,5.88,0,0,0,.55.76c.86.91,1.28,1.35,1.95,1.41s1.05-.76,1.38-1.32a3.59,3.59,0,0,0,.25-1.61c0-.14-.14,0-.47-.08A7,7,0,0,1,24,18.91" transform="translate(0.04 -1.21)"/><path class="cls-11" d="M8.64,15.9c1.56-1.2.86-.76,1.79-1.19,3.87-1.81,4-1.45,4-1.55A36.61,36.61,0,0,1,19.52,12a7.17,7.17,0,0,1,2.7.16,16.32,16.32,0,0,0-.37-2.09,9.17,9.17,0,0,0-2.69-4.43,7.11,7.11,0,0,0-1.69-1.15A8.08,8.08,0,0,0,11,4.66a11.6,11.6,0,0,0-4.1,2.86A5.69,5.69,0,0,0,6,8.81a6.54,6.54,0,0,0-.45,1.31c-.51,2-1.1,5.05.27,7.18.1.16.16.25.24.36S6,18,8.64,15.9Z" transform="translate(0.04 -1.21)"/><path class="cls-12" d="M8.61,16c1.58-1.21.87-.76,1.8-1.2,3.9-1.82,4.05-1.46,4-1.55a38.39,38.39,0,0,1,5.12-1.13,7.42,7.42,0,0,1,2.73.16,18.44,18.44,0,0,0-.37-2.1,9.14,9.14,0,0,0-2.72-4.45A7.16,7.16,0,0,0,17.5,4.55,8.16,8.16,0,0,0,11,4.68,11.91,11.91,0,0,0,6.83,7.55a5.61,5.61,0,0,0-.94,1.29,6.23,6.23,0,0,0-.45,1.32c-.51,2-1.11,5.08.28,7.21.1.16.16.25.24.36S5.92,18,8.61,16Zm.65-7.39,3-1.15,2.5,2-.51,3.17-3,1.15-2.5-2Zm4-4.36a7.42,7.42,0,0,1,2.59,0A6.29,6.29,0,0,1,18.5,5.29l-.33,2.53L15.16,9l-2.5-2ZM9.35,5.78a6.5,6.5,0,0,1,3.05-1.3L12,6.74,9,7.89,7.84,7S8,6.66,9.35,5.78ZM6.07,8.92c.68-1.34,1.15-1.51,1.15-1.51l1.26,1L8,11.55l-2.79.64A9.38,9.38,0,0,1,6.07,8.92ZM5.16,13l3-.69,2.5,2L8.12,16.05l-2,1.33A8.6,8.6,0,0,1,5.22,16,5.72,5.72,0,0,1,5.16,13ZM19.29,6,21.56,9.7,19,8ZM15.55,9.59l3-1.15,3,2.39s-1.65.46-2.15.63l-1.91.6-2.41.7Z" transform="translate(0.04 -1.21)"/><path class="cls-2" d="M14.55,13.82a12.69,12.69,0,0,1,2.18-1,7.21,7.21,0,0,1,4.87-.66c1.35.19,1.45.45,2,1.5.45.88,1.8-.78,2.09-1.06a1,1,0,0,0,.39-.8.86.86,0,0,0-.32-.48,3.39,3.39,0,0,0-2.13-.73,9.21,9.21,0,0,0-2.27.32c-2.9.67-6.17,1.38-8.47,3.27-.78.65-1.38.67-1.73,1.44" transform="translate(0.04 -1.21)"/><path class="cls-13" d="M5.71,17.36c0,.09-.13.14-.47.59a6.9,6.9,0,0,0-.76,1.17L5,18.61a9.88,9.88,0,0,1,1.2-.95A.85.85,0,0,1,5.71,17.36Z" transform="translate(0.04 -1.21)"/><path class="cls-14" d="M19.26,11.42a46.68,46.68,0,0,0-7.34,2A12.4,12.4,0,0,0,10,14.49c-.12.09-.25.23-.36.33-1.47,1.24-2.67,2-.07.86.92-.42,1.68.33,2.52-.29a22,22,0,0,1,2.28-1.51" transform="translate(0.04 -1.21)"/><circle class="cls-15" cx="16.92" cy="4.96" r="0.81"/><circle class="cls-15" cx="21.57" cy="11.51" r="0.81"/><path class="cls-16" d="M16.52,6.74l3.68,4.55.59-.2L17.55,7S17,6.42,17,6.29Z" transform="translate(0.04 -1.21)"/><path class="cls-17" d="M25.69,11.78a1.55,1.55,0,0,0-.37,0c0,.25-.25,1.59-.21,1.59s.37,0,.37,0c.08-.52.15-1.11.21-1.63" transform="translate(0.04 -1.21)"/><circle class="cls-18" cx="17.06" cy="4.61" r="0.81"/><path class="cls-19" d="M17.55,6.49,25,11.21l.39-.54L18.63,6.42a8.42,8.42,0,0,1-.79-.5Z" transform="translate(0.04 -1.21)"/><circle class="cls-20" cx="25.44" cy="10.07" r="0.58"/><path class="cls-21" d="M24,14.13a2.57,2.57,0,0,1,2-.68,2.86,2.86,0,0,1,2.61,3.31,3,3,0,0,1-3.34,3.09c-.77,0-1-.3-.95-.3a3.58,3.58,0,0,0,1.08,0,1.62,1.62,0,0,0,.73-.33,2.8,2.8,0,0,0,.28-.31A3.19,3.19,0,0,0,27,17.6a5.76,5.76,0,0,0,.07-2.28,1.48,1.48,0,0,0-.39-.79,2.53,2.53,0,0,0-.84-.56,1.53,1.53,0,0,0-.49-.18,1.5,1.5,0,0,0-.63.08,3.48,3.48,0,0,0-.78.35" transform="translate(0.04 -1.21)"/><path class="cls-22" d="M27.12,14.54a2.75,2.75,0,0,1,.53.65,3.38,3.38,0,0,1,.18,1.8,2.9,2.9,0,0,1-.47,1.57,2.2,2.2,0,0,1-.43.48c-.87.58-2.11.91-2.8.24a3.72,3.72,0,0,1-.93-3A2.85,2.85,0,0,1,24.57,14a2.09,2.09,0,0,1,1.58,0A2.72,2.72,0,0,1,27.12,14.54Z" transform="translate(0.04 -1.21)"/><path class="cls-23" d="M27.69,14.27a3,3,0,0,1,.64.73,3.55,3.55,0,0,1,.23,2A3.11,3.11,0,0,1,28,18.71a1.94,1.94,0,0,1-.51.52c-1,.63-2.48,1-3.29.24a4,4,0,0,1-1.11-3.35,3.09,3.09,0,0,1,1.6-2.54,2.6,2.6,0,0,1,1.85,0A3.12,3.12,0,0,1,27.69,14.27Z" transform="translate(0.04 -1.21)"/><path class="cls-24" d="M24.86,19.8s-1.86-.56-1.72-3.38c.1-2,1.13-2.58,1.29-2.66a8.41,8.41,0,0,1,1.2-.39l-1.79-.19c-1.38-.16-2.33,1.44-2.62,3a4,4,0,0,0,.8,3.21,15.24,15.24,0,0,0,2.91.47" transform="translate(0.04 -1.21)"/><path class="cls-25" d="M26.48-8.65" transform="translate(0.04 -1.21)"/></g><path class="cls-26" d="M8.48,19c-.31-.64-1.54.08-1.32.55s.06,1.54,1,1.35S8.63,19.26,8.48,19Z" transform="translate(0.04 -1.21)"/><path class="cls-26" d="M8.34,23.26c.9-.29.32-1.63.14-1.92s-1.15.09-1.26.53.24.71.35.83a2.83,2.83,0,0,0,.76.56h0" transform="translate(0.04 -1.21)"/><path class="cls-26" d="M9.86,22.34c.9-.29.32-1.64.14-1.92s-1.15.09-1.26.52.24.71.35.84a3.43,3.43,0,0,0,.76.56h0" transform="translate(0.04 -1.21)"/></svg>