<?xml version="1.0" encoding="UTF-8"?>
<svg id="Layer_1" data-name="Layer 1" xmlns="http://www.w3.org/2000/svg" viewBox="0 0 212 31">
  <defs>
    <style>
      .cls-1 {
        fill: #fff;
      }
    </style>
  </defs>
  <g>
    <g id="Sonatype_Logo_Favicon" data-name="Sonatype Logo Favicon">
      <g>
        <polygon class="cls-1" points="26.74 9.34 26.74 23.45 25.71 24.05 14.76 30.5 14.76 27.07 22.8 22.34 23.73 21.8 23.73 11.12 26.74 9.34"/>
        <polygon class="cls-1" points="25.71 7.55 22.6 9.38 14.76 4.76 13.73 4.16 12.71 4.76 4.87 9.38 1.77 7.55 12.71 1.1 13.73 .5 14.76 1.1 25.71 7.55"/>
        <polygon class="cls-1" points="12.71 27.07 12.71 30.5 1.77 24.05 .74 23.45 .74 9.34 3.75 11.12 3.75 21.8 4.67 22.34 12.71 27.07"/>
      </g>
    </g>
    <path class="cls-1" d="m12.12,19.43c0,.79.22,1.35.66,1.68.42.33.95.49,1.59.49h1.51v-2.44h-.61c-.44,0-.66-.2-.66-.61v-9.54h-2.5v10.41Z"/>
  </g>
  <g>
    <path class="cls-1" d="m34.72,19.66l1.1-1.72c.78.8,2.32,1.54,3.75,1.54s2.21-.6,2.21-1.47c0-2.18-6.71-.62-6.71-4.9,0-1.82,1.56-3.36,4.37-3.36,1.89,0,3.31.67,4.3,1.54l-1.01,1.7c-.67-.74-1.89-1.33-3.29-1.33-1.26,0-2.05.6-2.05,1.38,0,1.96,6.71.48,6.71,4.9,0,1.98-1.63,3.47-4.62,3.47-1.91,0-3.61-.62-4.76-1.75Z"/>
    <path class="cls-1" d="m44.93,15.57c0-3.2,2.16-5.82,5.7-5.82s5.7,2.62,5.7,5.82-2.16,5.84-5.7,5.84-5.7-2.67-5.7-5.84Zm8.9,0c0-1.96-1.13-3.68-3.2-3.68s-3.2,1.72-3.2,3.68,1.15,3.7,3.2,3.7,3.2-1.72,3.2-3.7Z"/>
    <path class="cls-1" d="m65.63,21.13v-6.94c0-1.75-.9-2.3-2.25-2.3-1.22,0-2.28.74-2.85,1.47v7.77h-2.42v-11.11h2.42v1.49c.74-.87,2.18-1.77,3.93-1.77,2.39,0,3.59,1.29,3.59,3.56v7.82h-2.41Z"/>
    <path class="cls-1" d="m77.41,21.13v-1.22c-.83.97-2.14,1.5-3.61,1.5-1.79,0-3.84-1.24-3.84-3.68,0-2.58,2.02-3.63,3.84-3.63,1.52,0,2.78.48,3.61,1.43v-1.66c0-1.29-1.08-2.07-2.6-2.07-1.24,0-2.35.46-3.29,1.43l-1.01-1.68c1.29-1.24,2.9-1.79,4.67-1.79,2.48,0,4.64,1.04,4.64,4v7.38h-2.41Zm0-2.53v-1.7c-.58-.76-1.61-1.15-2.64-1.15-1.36,0-2.39.8-2.39,2s1.04,2,2.39,2c1.04,0,2.07-.39,2.64-1.15Z"/>
    <path class="cls-1" d="m83.22,18.54v-6.42h-1.84v-2.09h1.84v-3.04h2.42v3.04h2.25v2.09h-2.25v5.82c0,.76.37,1.33,1.06,1.33.46,0,.87-.21,1.06-.41l.58,1.84c-.44.39-1.15.71-2.25.71-1.89,0-2.85-1.01-2.85-2.88Z"/>
    <path class="cls-1" d="m90.29,23.32c.25.12.64.18.92.18.78,0,1.29-.23,1.61-.97l.55-1.26-4.58-11.24h2.6l3.24,8.32,3.24-8.32h2.58l-5.36,13.11c-.76,1.88-2.07,2.48-3.79,2.51-.35,0-1.04-.07-1.36-.16l.34-2.16Z"/>
    <path class="cls-1" d="m104.11,19.59v5.77h-2.42v-15.34h2.42v1.52c.83-1.1,2.12-1.79,3.56-1.79,2.88,0,4.92,2.16,4.92,5.82s-2.05,5.84-4.92,5.84c-1.4,0-2.64-.64-3.56-1.82Zm6-4.02c0-2.16-1.24-3.68-3.15-3.68-1.13,0-2.3.64-2.85,1.47v4.39c.53.83,1.72,1.52,2.85,1.52,1.91,0,3.15-1.54,3.15-3.7Z"/>
    <path class="cls-1" d="m113.91,15.57c0-3.22,2.35-5.82,5.63-5.82s5.45,2.53,5.45,6.03v.6h-8.55c.18,1.66,1.43,3.06,3.52,3.06,1.1,0,2.37-.44,3.17-1.24l1.1,1.59c-1.13,1.06-2.76,1.63-4.51,1.63-3.36,0-5.82-2.32-5.82-5.84Zm5.61-3.84c-2.05,0-3.01,1.59-3.1,2.92h6.25c-.07-1.31-.97-2.92-3.15-2.92Z"/>
    <path class="cls-1" d="m132.28,21.13V5.8h2.92v15.34h-2.92Z"/>
    <path class="cls-1" d="m137.25,7.08c0-.97.78-1.72,1.72-1.72s1.75.76,1.75,1.72-.78,1.75-1.75,1.75-1.72-.78-1.72-1.75Zm.28,14.05v-11.11h2.92v11.11h-2.92Z"/>
    <path class="cls-1" d="m143.6,21.13v-8.55h-1.84v-2.55h1.84v-.46c0-2.51,1.5-4,3.73-4,1.08,0,2.23.3,2.9,1.06l-1.1,1.77c-.3-.28-.69-.44-1.22-.44-.83,0-1.38.53-1.38,1.61v.46h2.25v2.55h-2.25v8.55h-2.92Z"/>
    <path class="cls-1" d="m149.05,15.57c0-3.22,2.39-5.82,5.75-5.82s5.57,2.48,5.57,6.09v.69h-8.26c.21,1.36,1.31,2.48,3.2,2.48.94,0,2.23-.39,2.94-1.08l1.31,1.93c-1.1,1.01-2.85,1.54-4.58,1.54-3.38,0-5.93-2.28-5.93-5.84Zm5.75-3.43c-1.82,0-2.6,1.26-2.71,2.37h5.47c-.09-1.06-.83-2.37-2.76-2.37Z"/>
    <path class="cls-1" d="m161.45,15.57c0-3.4,2.48-5.82,5.89-5.82,2.28,0,3.66.99,4.39,2l-1.91,1.79c-.53-.78-1.33-1.2-2.35-1.2-1.77,0-3.01,1.29-3.01,3.22s1.24,3.24,3.01,3.24c1.01,0,1.82-.46,2.35-1.22l1.91,1.79c-.74,1.01-2.12,2.02-4.39,2.02-3.4,0-5.89-2.42-5.89-5.84Z"/>
    <path class="cls-1" d="m173.57,22.86c.25.12.64.18.92.18.76,0,1.26-.21,1.54-.8l.41-.97-4.51-11.24h3.13l2.9,7.73,2.92-7.73h3.13l-5.22,12.92c-.83,2.09-2.3,2.64-4.21,2.69-.32,0-1.08-.07-1.43-.18l.41-2.6Z"/>
    <path class="cls-1" d="m183.92,15.57c0-3.4,2.48-5.82,5.89-5.82,2.28,0,3.66.99,4.39,2l-1.91,1.79c-.53-.78-1.33-1.2-2.35-1.2-1.77,0-3.01,1.29-3.01,3.22s1.24,3.24,3.01,3.24c1.01,0,1.82-.46,2.35-1.22l1.91,1.79c-.74,1.01-2.12,2.02-4.39,2.02-3.4,0-5.89-2.42-5.89-5.84Z"/>
    <path class="cls-1" d="m195.53,21.13V5.8h2.92v15.34h-2.92Z"/>
    <path class="cls-1" d="m199.95,15.57c0-3.22,2.39-5.82,5.75-5.82s5.57,2.48,5.57,6.09v.69h-8.26c.21,1.36,1.31,2.48,3.2,2.48.94,0,2.23-.39,2.94-1.08l1.31,1.93c-1.1,1.01-2.85,1.54-4.58,1.54-3.38,0-5.93-2.28-5.93-5.84Zm5.75-3.43c-1.82,0-2.6,1.26-2.71,2.37h5.47c-.09-1.06-.83-2.37-2.76-2.37Z"/>
  </g>
</svg>