<svg xmlns="http://www.w3.org/2000/svg" xmlns:xlink="http://www.w3.org/1999/xlink" viewBox="0 0 72.78 76.78"><defs><style>.cls-1{fill:#ebebeb;}.cls-1,.cls-12,.cls-2,.cls-5,.cls-6,.cls-7{fill-rule:evenodd;}.cls-2{fill:url(#linear-gradient);}.cls-3{fill:#b5b5b5;fill-opacity:0.79;}.cls-4{fill:#fff;}.cls-5{fill:#173c82;}.cls-6{fill:#4978d2;}.cls-7{fill:#94b9ff;}.cls-8{fill:url(#radial-gradient);}.cls-9{fill:url(#radial-gradient-2);}.cls-10{fill:url(#radial-gradient-3);}.cls-11{fill:none;}.cls-12{fill:#3061be;}.cls-13{fill:#4c82ea;}</style><linearGradient id="linear-gradient" x1="-254.61" y1="451.23" x2="-253.61" y2="451.23" gradientTransform="matrix(0.11, 36, 36, -0.11, -16177.53, 9265.97)" gradientUnits="userSpaceOnUse"><stop offset="0" stop-color="#26e15c"/><stop offset="1" stop-color="#00a02e"/></linearGradient><radialGradient id="radial-gradient" cx="-254.61" cy="451.21" r="1" gradientTransform="matrix(-0.01, 1.59, 1.93, 0.01, -835.58, 448)" gradientUnits="userSpaceOnUse"><stop offset="0"/><stop offset="0.53" stop-color="#031603"/><stop offset="1" stop-color="#0c5e0f"/></radialGradient><radialGradient id="radial-gradient-2" cx="-254.61" cy="451.21" gradientTransform="matrix(-0.01, 1.59, 1.93, 0.01, -849.38, 447.91)" xlink:href="#radial-gradient"/><radialGradient id="radial-gradient-3" cx="-254.61" cy="451.21" gradientTransform="matrix(-0.01, 1.59, 1.93, 0.01, -821.78, 448.1)" xlink:href="#radial-gradient"/></defs><g id="Layer_2" data-name="Layer 2"><g id="Layer_1-2" data-name="Layer 1"><path class="cls-1" d="M36.33,0,72.65,19.19V57.55L36.33,76.73,0,57.55V19.19Z"/><g id="Layer1"><path class="cls-2" d="M36.5,76.78C35.86,76.41.19,57.67.18,57.43a12,12,0,0,1,1.26-5.3,6.84,6.84,0,0,1,1.89-1.79,8,8,0,0,1,4.74-.64c1.1.09,2.37,1.32,3.44,1,2.09-.56,2.59-3,4-4.41C18,43.8,21,42.26,24.15,40.68s10.68-2.59,13.92-2.59c8,0,12.28,1.73,19.22,6.42a14.41,14.41,0,0,1,3.91,3.72c.36.55,1,2.87,1.6,2.91,1.87.14,3.37-1.47,4.62-1.32a6.43,6.43,0,0,1,3.2,1.59,9.15,9.15,0,0,1,2.13,3.69c0,.22,0,2.33,0,2.41C72.71,57.92,37.48,76.19,36.5,76.78Z"/><ellipse class="cls-3" cx="37.48" cy="54.13" rx="6.54" ry="6.44"/><ellipse class="cls-3" cx="23.68" cy="54.04" rx="6.54" ry="6.44"/><ellipse class="cls-3" cx="51.28" cy="54.23" rx="6.54" ry="6.44"/><ellipse class="cls-4" cx="37.44" cy="52.5" rx="6.65" ry="6.07"/><ellipse class="cls-4" cx="23.64" cy="52.41" rx="6.65" ry="6.07"/><ellipse class="cls-4" cx="51.24" cy="52.6" rx="6.65" ry="6.07"/><path class="cls-5" d="M34.63,8.17s0,.4,0,.45a2.7,2.7,0,0,0,0,.28c0,.29.5,6,.49,9.67,0,.79.1,2.21.07,3,0,.25,0,.79.15,1s-.11.3-.11.3,0-.07.11-.3.09-.27.16-.43c.19-.41.23-.64.64-.57s.56.45.73.79a1.6,1.6,0,0,1,.11.33c0,.05,0,.22,0,.17,0-.92.09-2.29.17-3.8.2-3.77.47-8.44.48-9.25a10,10,0,0,0,0-1.34"/><path class="cls-5" d="M32,3.1c0-.06-.09.1-.14.15a3.45,3.45,0,0,0-.26.28c-.27.28-5.78,5.72-9.56,9-.81.69-2.19,2-3,2.7-.27.22-.57.38-.84.59l-.44.35L18,16a2.73,2.73,0,0,1,.59-.3c.57-.22.95-.12,1.18.29s-.05.85-.27,1.3a2.33,2.33,0,0,1-.26.38c-.05.06-.21.22-.15.17,1-.78,2.42-1.94,4-3.21,4-3.18,9-7.08,9.83-7.79a15.56,15.56,0,0,0,1.4-1.15"/><path class="cls-5" d="M38,5.31c-.06,0,.11.08.16.12l.3.22c.3.22,6.12,4.89,9.64,8.16.75.7,2.19,1.87,2.92,2.58.24.24.42.51.65.75l.39.38-.2-.22a2.32,2.32,0,0,1-.35-.55c-.26-.52.18-.75.56-1s.45-.21.91-.05a2.14,2.14,0,0,1,.4.2c.06,0,.23.17.18.12-.86-.84-2.12-2.1-3.52-3.51C46.52,9,42.26,4.63,41.48,3.9a16,16,0,0,0-1.25-1.22"/><path class="cls-6" d="M20.25,16.23a3.25,3.25,0,0,0-.67-.71,1.4,1.4,0,0,0-1.64.34c-.37.54,0,1.19.37,1.65.59.83,1.21,1.39,1.83,2.21.4.53,5,5.24,5.17,5.43.39.39,1.43,1.27,1.66,1.09a1.15,1.15,0,0,0,.57-.42c.82-.95-.5-1.58-1.18-2.2a18.75,18.75,0,0,1-1.7-1.75C24,21,23.25,20.14,22.6,19.4A36.06,36.06,0,0,1,20.25,16.23Z"/><path class="cls-6" d="M52.91,17.86a8,8,0,0,0,.83-1.31,1.13,1.13,0,0,0-.82-1.21c-.6-.22-1.34.52-1.7.95-.65.77-1,1.5-1.67,2.3-.41.51-3.8,6.09-3.94,6.32-.28.46-1,2-.81,2.18a1.2,1.2,0,0,0,.4.22c1.16.43,1.7-.95,2.13-1.75a18.13,18.13,0,0,1,1.26-2.07c.63-.85,1.31-1.79,1.87-2.59A35.78,35.78,0,0,1,52.91,17.86Z"/><path class="cls-7" d="M27.38,23.93s-.26.16-.34.23a4.15,4.15,0,0,0-.74.77c-.39.53-.07,1,.39,1.31.18.13.44,0,.59-.09.42-.29.77-.68,1.17-1,.9-.67,1.76-1.38,2.62-2.08a7.12,7.12,0,0,0,1.29-1,.68.68,0,0,0-.43-1.1c-.57-.07-1.08.5-1.54.77a13.66,13.66,0,0,0-1.37.92C28.33,23.16,28.2,23.27,27.38,23.93Z"/><path class="cls-7" d="M44,26.42s.15.26.22.35a4.15,4.15,0,0,0,.74.77c.52.41,1,.11,1.33-.34a.57.57,0,0,0-.07-.6c-.28-.42-.65-.78-.94-1.2-.63-.92-1.3-1.82-2-2.7a7.21,7.21,0,0,0-1-1.33.68.68,0,0,0-1.12.38c-.1.57.45,1.1.7,1.57a13.71,13.71,0,0,0,.87,1.41C43.29,25.44,43.4,25.58,44,26.42Z"/><path class="cls-7" d="M35.41,20.87c-.25.43-.19.62-.19.63s-.07.19-.09.35c-.06.54-.07.87-.1,1.34-.12,1.59-.61,3.39.4,4.34a1.62,1.62,0,0,0,1.28.15c.47-.13.69-1.15.69-1.69,0-1.25,0-1.62,0-2.41a8.51,8.51,0,0,0-.23-2.32c-.21-.58-.62-1.27-1.21-1C35.7,20.34,35.54,20.65,35.41,20.87Z"/><ellipse class="cls-8" cx="37.35" cy="47.79" rx="0.98" ry="0.91"/><ellipse class="cls-9" cx="23.55" cy="47.7" rx="0.98" ry="0.91"/><ellipse class="cls-10" cx="51.15" cy="47.89" rx="0.98" ry="0.91"/><path class="cls-11" d="M32.39,1.76s-.32.37-.65.72a12.89,12.89,0,0,0-.57,1.43,6.73,6.73,0,0,0,0,2.41C31.81,8,33.16,9,35.56,8.94S40,7.62,40.33,4.75a5.85,5.85,0,0,0-.18-1.82,2.05,2.05,0,0,0-.44-.86"/><path class="cls-11" d="M32.39,1.77l-.65.72a11,11,0,0,0-.57,1.42,6.79,6.79,0,0,0,0,2.42C31.81,8,33.16,9,35.55,8.94c2.56,0,4.48-1.32,4.78-4.18a5.89,5.89,0,0,0-.18-1.83,2.09,2.09,0,0,0-.44-.85"/><path class="cls-11" d="M32.41,1.78s-.31.36-.64.72a11,11,0,0,0-.58,1.42,7,7,0,0,0,0,2.41C31.84,8,33.19,9,35.58,9c2.56,0,4.47-1.32,4.77-4.19a5.3,5.3,0,0,0-.18-1.82,1.93,1.93,0,0,0-.44-.86"/><path class="cls-12" d="M33.22,1.62a2.35,2.35,0,0,0-1.12.76,3.94,3.94,0,0,0-.46,1.24,4.34,4.34,0,0,0,4.49,5.07c2.8.05,4.59-1.32,4.89-4.18a5.34,5.34,0,0,0-.18-1.83.81.81,0,0,0-.44-.58C40.06,1.91,36.87.25,36.31,0"/><circle class="cls-13" cx="36.33" cy="4.04" r="2.42" transform="translate(26.52 39.26) rotate(-80.78)"/></g></g></g></svg>